<svg xmlns="http://www.w3.org/2000/svg" width="16" height="20" viewBox="0 0 16 20">
    <path fill="#FFF" fill-rule="evenodd" d="M.5 7.176c0 1.976.725 3.734 2.28 4.39.255.107.483.003.557-.288.051-.202.173-.71.226-.923.075-.287.046-.388-.16-.64-.447-.546-.734-1.252-.734-2.253 0-2.902 2.104-5.502 5.48-5.502 2.989 0 4.63 1.886 4.63 4.403 0 3.312-1.42 6.108-3.528 6.108-1.164 0-2.036-.994-1.756-2.213.334-1.455.982-3.026.982-4.076 0-.94-.49-1.725-1.5-1.725-1.19 0-2.148 1.27-2.148 2.973 0 1.085.355 1.818.355 1.818l-1.431 6.26c-.425 1.858-.064 4.136-.033 4.365.018.137.187.17.264.067.11-.149 1.527-1.955 2.01-3.76.136-.51.782-3.157.782-3.157.387.76 1.517 1.431 2.719 1.431 3.578 0 6.005-3.366 6.005-7.873C15.5 3.173 12.704 0 8.454 0 3.167 0 .5 3.913.5 7.176z"/>
</svg>
