<svg xmlns="http://www.w3.org/2000/svg" width="24" height="20" viewBox="0 0 24 20">
    <path fill="#FFF" fill-rule="evenodd" d="M21.232 3.162A5.015 5.015 0 0 0 23.35.37a9.388 9.388 0 0 1-3.062 1.225A4.708 4.708 0 0 0 16.77 0c-2.662 0-4.819 2.26-4.819 5.048 0 .396.04.782.123 1.15C8.067 5.988 4.515 3.98 2.136.923a5.22 5.22 0 0 0-.653 2.54c0 1.75.852 3.296 2.145 4.203a4.673 4.673 0 0 1-2.185-.631v.062c0 2.447 1.661 4.488 3.87 4.95-.406.118-.83.177-1.272.177-.31 0-.614-.03-.906-.09.612 2.006 2.393 3.468 4.503 3.507A9.4 9.4 0 0 1 .5 17.732 13.212 13.212 0 0 0 7.89 20c8.87 0 13.717-7.693 13.717-14.365 0-.22-.003-.438-.013-.653A10.033 10.033 0 0 0 24 2.367a9.29 9.29 0 0 1-2.768.795z"/>
</svg>
